#!OML:ASF H:\LiuWeirdWalks\Patient Classification 1\Patient 1\Session 1\male.ASF
:FULLY-SPECIFIED
:DEGREES
242
root -0.0169456 17.6581 3.22178 4.60636 -4.00324 -7.81039
lowerback 5.3826 3.65121 5.37415
upperback -0.598143 5.37006 4.13393
thorax -3.54473 2.60255 0.834408
lowerneck -20.0977 -0.334621 3.89274
upperneck 21.2651 -0.279353 -5.59306
head 10.0805 -0.484505 -2.6707
rclavicle -1.66979e-014 -2.3059e-014
rhumerus -25.1741 0.737252 -79.4853
rradius 46.6617
rwrist -18.9485
rhand -18.6252 0.57016
rfingers 7.12502
rthumb 7.66693 -29.2709
lclavicle -1.66979e-014 -2.3059e-014
lhumerus -53.2797 8.61447 74.0254
lradius 22.7094
lwrist -11.6653
lhand -9.45553 0.368395
lfingers 7.12502
lthumb 16.5079 29.6861
rfemur 24.4026 2.4197 31.1483
rtibia -2.8625e-014
rfoot -0.21109 -13.2428
rtoes -20.8681
lfemur -37.9817 4.87897 -10.052
ltibia 23.4872
lfoot -14.0809 19.6418
ltoes -22.8714
243
root 0.0103176 17.6309 3.54453 4.43082 -4.33491 -7.65119
lowerback 5.32513 3.68881 5.28095
upperback -0.578338 5.40451 4.05136
thorax -3.49108 2.62207 0.80253
lowerneck -19.9996 -0.245716 4.01959
upperneck 21.3105 -0.17809 -5.6428
head 10.0838 -0.43223 -2.69524
rclavicle 4.8901e-014 -2.38542e-015
rhumerus -24.8823 1.28011 -79.5386
rradius 47.7755
rwrist -19.123
rhand -18.6417 1.28278
rfingers 7.12502
rthumb 7.65104 -28.5588
lclavicle 4.8901e-014 -2.38542e-015
lhumerus -54.3925 9.52084 72.6892
lradius 22.4633
lwrist -12.1544
lhand -10.0616 0.678606
lfingers 7.12502
lthumb 15.9244 30.0439
rfemur 25.5309 2.37801 30.5933
rtibia -2.54444e-014
rfoot 1.30592 -12.1986
rtoes -22.0739
lfemur -37.5506 5.591 -10.7744
ltibia 24.0772
lfoot -14.269 18.2175
ltoes -23.1477
244
root 0.0384212 17.6031 3.87218 4.20714 -4.56321 -7.54273
lowerback 5.28306 3.68053 5.24165
upperback -0.563077 5.38408 3.99584
thorax -3.44987 2.61316 0.771941
lowerneck -19.8917 -0.15388 4.14747
upperneck 21.3657 -0.0707086 -5.69791
head 10.0893 -0.377535 -2.7212
rclavicle -1.28216e-014 -9.54166e-015
rhumerus -24.6325 1.8099 -79.5823
rradius 48.6947
rwrist -19.2888
rhand -18.7283 1.89252
rfingers 7.12502
rthumb 7.56745 -27.9521
lclavicle -1.28216e-014 -9.54166e-015
lhumerus -55.4784 10.3222 71.449
lradius 22.2085
lwrist -12.3378
lhand -10.6655 0.919721
lfingers 7.12502
lthumb 15.3427 30.3305
rfemur 22.9749 2.18967 30.0431
rtibia 7.3607
rfoot -0.487624 -12.0168
rtoes -23.3464
lfemur -37.0477 6.00441 -11.3119
ltibia 25.0446
lfoot -14.4737 16.7567
ltoes -23.3081
245
root 0.0676242 17.5769 4.20576 3.92988 -4.73061 -7.48604
lowerback 5.24094 3.63997 5.25985
upperback -0.552946 5.32557 3.96558
thorax -3.41221 2.5843 0.738511
lowerneck -19.7117 -0.0590523 4.2904
upperneck 21.4057 0.0423108 -5.76788
head 10.0764 -0.31991 -2.75305
rclavicle 3.17062e-014 1.59028e-014
rhumerus -24.4609 2.33904 -79.6193
rradius 49.4255
rwrist -19.3905
rhand -18.8868 2.26095
rfingers 7.12502
rthumb 7.41444 -27.5891
lclavicle 3.17062e-014 1.59028e-014
lhumerus -56.5324 11.0305 70.3023
lradius 21.9174
lwrist -12.2562
lhand -11.2426 1.11124
lfingers 7.12502
lthumb 14.7868 30.5637
rfemur 22.1361 1.9587 29.5444
rtibia 11.2672
rfoot -0.202316 -11.2659
rtoes -24.6125
lfemur -36.4171 6.03531 -11.6059
ltibia 26.1981
lfoot -14.6255 15.3772
ltoes -23.452
246
root 0.09933 17.5394 4.54262 3.61854 -4.85444 -7.46132
lowerback 5.20973 3.57256 5.3217
upperback -0.56071 5.23679 3.95282
thorax -3.398 2.539 0.699897
lowerneck -19.4962 0.0298723 4.40821
upperneck 21.4965 0.153794 -5.81875
head 10.0752 -0.262194 -2.77501
rclavicle -3.38928e-014 -1.19271e-014
rhumerus -24.3722 2.87364 -79.6579
rradius 49.9683
rwrist -19.4581
rhand -19.1801 2.3358
rfingers 7.12502
rthumb 7.13134 -27.524
lclavicle -3.38928e-014 -1.19271e-014
lhumerus -57.5452 11.6357 69.275
lradius 21.5917
lwrist -11.9602
lhand -11.7717 1.24146
lfingers 7.12502
lthumb 14.277 30.7307
rfemur 21.5955 1.6364 29.026
rtibia 14.4977
rfoot 0.882823 -10.2986
rtoes -25.7206
lfemur -35.7222 5.73455 -11.7148
ltibia 27.3852
lfoot -14.5112 14.1098
ltoes -23.4462
247
root 0.13251 17.526 4.8853 3.28391 -4.96951 -7.38224
lowerback 5.16023 3.49249 5.34706
upperback -0.570124 5.12707 3.92934
thorax -3.37801 2.48408 0.672808
lowerneck -19.2877 0.110064 4.49192
upperneck 21.6823 0.257708 -5.83163
head 10.109 -0.20611 -2.78121
rclavicle 1.50579e-014 7.95139e-015
rhumerus -24.3553 3.39537 -79.6973
rradius 50.327
rwrist -19.383
rhand -19.5718 2.13027
rfingers 7.12502
rthumb 6.75319 -27.742
lclavicle 1.50579e-014 7.95139e-015
lhumerus -58.4659 12.2151 68.3124
lradius 21.1818
lwrist -11.5966
lhand -12.1688 1.36165
lfingers 7.12502
lthumb 13.8944 30.8775
rfemur 20.9696 1.21452 28.3658
rtibia 17.664
rfoot 2.63545 -9.15479
rtoes -26.4744
lfemur -34.933 5.19768 -11.7822
ltibia 28.5589
lfoot -14.1871 13.0691
ltoes -23.2141
248
root 0.166692 17.5388 5.23216 2.94482 -5.08454 -7.10879
lowerback 5.10059 3.41011 5.18727
upperback -0.59331 5.00152 3.85629
thorax -3.37798 2.42401 0.697233
lowerneck -19.0853 0.17788 4.51361
upperneck 21.9664 0.351992 -5.78535
head 10.1787 -0.152448 -2.75965
rclavicle 1.36664e-015 -3.57812e-014
rhumerus -24.4136 3.86666 -79.7419
rradius 50.4913
rwrist -19.1258
rhand -20.0532 1.66934
rfingers 7.12502
rthumb 6.28849 -28.2173
lclavicle 1.36664e-015 -3.57812e-014
lhumerus -59.2641 12.7933 67.3935
lradius 20.6578
lwrist -11.2612
lhand -12.4212 1.44878
lfingers 7.12502
lthumb 13.6511 30.9811
rfemur 20.1453 0.764354 27.4378
rtibia 20.917
rfoot 5.09529 -7.93318
rtoes -26.8559
lfemur -34.077 4.51765 -12.0147
ltibia 29.6418
lfoot -13.5977 12.3802
ltoes -22.7051
249
root 0.201719 17.5467 5.57492 2.6278 -5.17419 -6.55065
lowerback 5.01722 3.32856 4.7458
upperback -0.632665 4.85691 3.70353
thorax -3.39698 2.35897 0.79652
lowerneck -18.9053 0.252583 4.54556
upperneck 22.286 0.45377 -5.74095
head 10.2661 -0.0948745 -2.7405
rclavicle 4.93731e-014 5.56597e-014
rhumerus -24.5465 4.23863 -79.7883
rradius 50.4764
rwrist -18.6548
rhand -20.593 1.00249
rfingers 7.12502
rthumb 5.76728 -28.899
lclavicle 4.93731e-014 5.56597e-014
lhumerus -59.8857 13.4155 66.4639
lradius 19.9771
lwrist -11.1099
lhand -12.5062 1.50815
lfingers 7.12502
lthumb 13.5691 31.046
rfemur 19.0926 0.346401 26.1891
rtibia 24.2912
rfoot 8.23477 -6.75672
rtoes -26.6293
lfemur -33.2537 3.81744 -12.5785
ltibia 30.5572
lfoot -12.6633 12.0766
ltoes -21.8984
250
root 0.234805 17.5637 5.91259 2.32243 -5.24611 -5.69619
lowerback 4.94722 3.25793 3.9934
upperback -0.692628 4.70843 3.47094
thorax -3.46114 2.29684 0.984045
lowerneck -18.7375 0.319107 4.5625
upperneck 22.6262 0.548121 -5.69305
head 10.363 -0.0416738 -2.71919
rclavicle 2.44008e-014 -4.13472e-014
rhumerus -24.7639 4.46316 -79.8277
rradius 50.2835
rwrist -17.9732
rhand -21.1387 0.138619
rfingers 7.12502
rthumb 5.24046 -29.7766
lclavicle 2.44008e-014 -4.13472e-014
lhumerus -60.3464 14.1098 65.4673
lradius 19.1345
lwrist -11.3067
lhand -12.4319 1.44873
lfingers 7.12502
lthumb 13.6407 30.9818
rfemur 17.7353 0.0366136 24.6608
rtibia 27.9404
rfoot 11.9369 -5.74969
rtoes -25.282
lfemur -32.4115 3.23382 -13.5197
ltibia 31.3222
lfoot -11.508 12.1967
ltoes -20.9831
251
root 0.264849 17.5863 6.24382 2.02989 -5.29293 -4.62525
lowerback 4.88699 3.19923 3.01354
upperback -0.751681 4.56098 3.1733
thorax -3.53952 2.23971 1.23096
lowerneck -18.5783 0.378365 4.59996
upperneck 22.9005 0.633465 -5.68343
head 10.4375 0.00432802 -2.71493
rclavicle 5.7896e-015 -2.3059e-014
rhumerus -25.0289 4.53222 -79.8598
rradius 49.9158
rwrist -17.1256
rhand -21.6933 -0.829624
rfingers 7.12502
rthumb 4.70497 -30.7574
lclavicle 5.7896e-015 -2.3059e-014
lhumerus -60.5936 14.9015 64.3865
lradius 18.136
lwrist -11.889
lhand -12.2209 1.35641
lfingers 7.12502
lthumb 13.8441 30.8757
rfemur 16.0781 -0.157505 22.9648
rtibia 31.9107
rfoot 15.9823 -4.91051
rtoes -22.1341
lfemur -31.5538 2.88002 -14.7809
ltibia 32.0034
lfoot -10.2501 12.655
ltoes -20.1165
252
root 0.291183 17.6111 6.56771 1.74149 -5.33072 -3.50318
lowerback 4.87693 3.15548 1.97475
upperback -0.810645 4.43138 2.85432
thorax -3.64624 2.19296 1.48613
lowerneck -18.4649 0.413481 4.60989
upperneck 23.1432 0.691669 -5.67855
head 10.5077 0.0342444 -2.71127
rclavicle 1.91827e-014 2.26615e-014
rhumerus -25.3513 4.47624 -79.8825
rradius 49.402
rwrist -16.2186
rhand -22.2502 -1.83404
rfingers 7.12502
rthumb 4.16716 -31.773
lclavicle 1.91827e-014 2.26615e-014
lhumerus -60.6781 15.8102 63.1784
lradius 17.0269
lwrist -12.9461
lhand -11.9122 1.17321
lfingers 7.12502
lthumb 14.1416 30.6719
rfemur 14.2424 -0.256371 21.2894
rtibia 36.0437
rfoot 19.9018 -4.26418
rtoes -17.3052
lfemur -30.6167 2.81117 -16.1762
ltibia 32.5422
lfoot -9.04568 13.2337
ltoes -19.2837
